<svg width="209" height="210" viewBox="0 0 209 210" fill="none" xmlns="http://www.w3.org/2000/svg">
<mask id="mask0_389_447" style="mask-type:luminance" maskUnits="userSpaceOnUse" x="65" y="83" width="144" height="108">
<path d="M65.1094 83.0234H208.366V190.466H65.1094V83.0234Z" fill="white"/>
</mask>
<g mask="url(#mask0_389_447)">
<mask id="mask1_389_447" style="mask-type:luminance" maskUnits="userSpaceOnUse" x="66" y="84" width="153" height="107">
<path d="M66.1172 130.403L197.4 84.166L218.487 144.049L87.2038 190.286L66.1172 130.403Z" fill="white"/>
</mask>
<g mask="url(#mask1_389_447)">
<mask id="mask2_389_447" style="mask-type:luminance" maskUnits="userSpaceOnUse" x="24" y="84" width="195" height="121">
<path d="M24.582 145.028L197.326 84.1914L218.413 144.074L45.6687 204.911L24.582 145.028Z" fill="white"/>
</mask>
<g mask="url(#mask2_389_447)">
<path d="M29.7344 159.585L197.849 84.0078L207.197 144.559L57.6443 201.033L29.7344 159.585Z" fill="#C3DDC2"/>
</g>
</g>
</g>
<mask id="mask3_389_447" style="mask-type:luminance" maskUnits="userSpaceOnUse" x="14" y="0" width="104" height="144">
<path d="M14.6562 0H117.215V143.256H14.6562V0Z" fill="white"/>
</mask>
<g mask="url(#mask3_389_447)">
<mask id="mask4_389_447" style="mask-type:luminance" maskUnits="userSpaceOnUse" x="15" y="-10" width="102" height="152">
<path d="M15.5664 123.148L56.1309 -9.99805L116.866 8.50676L76.3018 141.652L15.5664 123.148Z" fill="white"/>
</mask>
<g mask="url(#mask4_389_447)">
<mask id="mask5_389_447" style="mask-type:luminance" maskUnits="userSpaceOnUse" x="3" y="-10" width="115" height="194">
<path d="M63.7589 183.862L117.13 8.67032L56.3951 -9.82812L3.02344 165.357L63.7589 183.862Z" fill="white"/>
</mask>
<g mask="url(#mask5_389_447)">
<path d="M48.9949 179.336L117.291 8.13757L56.3969 1.39062L6.38281 153.225L48.9949 179.336Z" fill="#40883E"/>
</g>
</g>
</g>
<mask id="mask6_389_447" style="mask-type:luminance" maskUnits="userSpaceOnUse" x="40" y="22" width="143" height="146">
<path d="M40.6992 22.791H182.328V167.675H40.6992V22.791Z" fill="white"/>
</mask>
<g mask="url(#mask6_389_447)">
<mask id="mask7_389_447" style="mask-type:luminance" maskUnits="userSpaceOnUse" x="41" y="24" width="141" height="144">
<path d="M143.554 24.0605L181.727 60.7904L79.3844 167.158L41.2109 130.428L143.554 24.0605Z" fill="white"/>
</mask>
<g mask="url(#mask7_389_447)">
<path d="M143.555 24.0605L181.728 60.7904L79.4298 167.113L41.25 130.384L143.555 24.0605Z" fill="#215A7F"/>
</g>
</g>
<mask id="mask8_389_447" style="mask-type:luminance" maskUnits="userSpaceOnUse" x="159" y="55" width="6" height="4">
<path d="M159.535 55.3477H164.419V58.6035H159.535V55.3477Z" fill="white"/>
</mask>
<g mask="url(#mask8_389_447)">
<mask id="mask9_389_447" style="mask-type:luminance" maskUnits="userSpaceOnUse" x="74" y="28" width="105" height="106">
<path d="M138.897 28.8828L178.489 66.9798L114.154 133.845L74.5625 95.7481L138.897 28.8828Z" fill="white"/>
</mask>
<g mask="url(#mask9_389_447)">
<mask id="mask10_389_447" style="mask-type:luminance" maskUnits="userSpaceOnUse" x="74" y="28" width="105" height="106">
<path d="M138.897 28.8848L178.489 66.9818L114.154 133.847L74.5625 95.7501L138.897 28.8848Z" fill="white"/>
</mask>
<g mask="url(#mask10_389_447)">
<mask id="mask11_389_447" style="mask-type:luminance" maskUnits="userSpaceOnUse" x="74" y="28" width="105" height="106">
<path d="M138.897 28.8848L178.489 66.9818L114.154 133.847L74.5625 95.7501L138.897 28.8848Z" fill="white"/>
</mask>
<g mask="url(#mask11_389_447)">
<path d="M163.005 57.5249L164.385 57.0861L160.258 56.4375L163.005 57.5249Z" fill="#231F20"/>
</g>
</g>
</g>
</g>
<mask id="mask12_389_447" style="mask-type:luminance" maskUnits="userSpaceOnUse" x="159" y="55" width="8" height="4">
<path d="M159.535 55.3477H166.047V58.6035H159.535V55.3477Z" fill="white"/>
</mask>
<g mask="url(#mask12_389_447)">
<mask id="mask13_389_447" style="mask-type:luminance" maskUnits="userSpaceOnUse" x="74" y="28" width="105" height="106">
<path d="M138.897 28.8828L178.489 66.9798L114.154 133.845L74.5625 95.7481L138.897 28.8828Z" fill="white"/>
</mask>
<g mask="url(#mask13_389_447)">
<mask id="mask14_389_447" style="mask-type:luminance" maskUnits="userSpaceOnUse" x="74" y="28" width="105" height="106">
<path d="M138.897 28.8848L178.489 66.9818L114.154 133.847L74.5625 95.7501L138.897 28.8848Z" fill="white"/>
</mask>
<g mask="url(#mask14_389_447)">
<mask id="mask15_389_447" style="mask-type:luminance" maskUnits="userSpaceOnUse" x="74" y="28" width="105" height="106">
<path d="M138.897 28.8848L178.489 66.9818L114.154 133.847L74.5625 95.7501L138.897 28.8848Z" fill="white"/>
</mask>
<g mask="url(#mask15_389_447)">
<path d="M160.443 55.9355L160.653 56.1581L160.297 56.3107L164.265 57.0039L163.915 56.5524L164.487 56.0564L160.443 55.9355Z" fill="#231F20"/>
</g>
</g>
</g>
</g>
<mask id="mask16_389_447" style="mask-type:luminance" maskUnits="userSpaceOnUse" x="159" y="53" width="8" height="4">
<path d="M159.535 53.7188H166.047V56.9746H159.535V53.7188Z" fill="white"/>
</mask>
<g mask="url(#mask16_389_447)">
<mask id="mask17_389_447" style="mask-type:luminance" maskUnits="userSpaceOnUse" x="74" y="28" width="105" height="106">
<path d="M138.897 28.8867L178.489 66.9837L114.154 133.849L74.5625 95.752L138.897 28.8867Z" fill="white"/>
</mask>
<g mask="url(#mask17_389_447)">
<mask id="mask18_389_447" style="mask-type:luminance" maskUnits="userSpaceOnUse" x="74" y="28" width="105" height="106">
<path d="M138.897 28.8848L178.489 66.9818L114.154 133.847L74.5625 95.7501L138.897 28.8848Z" fill="white"/>
</mask>
<g mask="url(#mask18_389_447)">
<mask id="mask19_389_447" style="mask-type:luminance" maskUnits="userSpaceOnUse" x="74" y="28" width="105" height="106">
<path d="M138.897 28.8828L178.489 66.9798L114.154 133.845L74.5625 95.7481L138.897 28.8828Z" fill="white"/>
</mask>
<g mask="url(#mask19_389_447)">
<path d="M160.846 55.591L160.395 55.8136L164.483 56.0298L164.159 55.6483L164.541 55.2031L160.464 55.3812L160.846 55.591Z" fill="#231F20"/>
</g>
</g>
</g>
</g>
<mask id="mask20_389_447" style="mask-type:luminance" maskUnits="userSpaceOnUse" x="159" y="52" width="6" height="4">
<path d="M159.535 52.0938H164.419V55.3496H159.535V52.0938Z" fill="white"/>
</mask>
<g mask="url(#mask20_389_447)">
<mask id="mask21_389_447" style="mask-type:luminance" maskUnits="userSpaceOnUse" x="74" y="28" width="105" height="106">
<path d="M138.897 28.8848L178.489 66.9818L114.154 133.847L74.5625 95.7501L138.897 28.8848Z" fill="white"/>
</mask>
<g mask="url(#mask21_389_447)">
<mask id="mask22_389_447" style="mask-type:luminance" maskUnits="userSpaceOnUse" x="74" y="28" width="105" height="106">
<path d="M138.897 28.8867L178.489 66.9837L114.154 133.849L74.5625 95.752L138.897 28.8867Z" fill="white"/>
</mask>
<g mask="url(#mask22_389_447)">
<mask id="mask23_389_447" style="mask-type:luminance" maskUnits="userSpaceOnUse" x="74" y="28" width="105" height="106">
<path d="M138.897 28.8867L178.489 66.9837L114.154 133.849L74.5625 95.752L138.897 28.8867Z" fill="white"/>
</mask>
<g mask="url(#mask23_389_447)">
<path d="M162.789 52.8984L160.156 54.183L164.201 53.2355L162.789 52.8984Z" fill="#231F20"/>
<path d="M160.195 54.3055L160.57 54.4326L160.38 54.6743L164.399 54.261L163.782 53.8031L164.087 53.3262L160.195 54.3055Z" fill="#231F20"/>
</g>
</g>
</g>
</g>
<mask id="mask24_389_447" style="mask-type:luminance" maskUnits="userSpaceOnUse" x="156" y="53" width="4" height="4">
<path d="M156.281 53.7188H159.537V56.9746H156.281V53.7188Z" fill="white"/>
</mask>
<g mask="url(#mask24_389_447)">
<mask id="mask25_389_447" style="mask-type:luminance" maskUnits="userSpaceOnUse" x="74" y="28" width="105" height="106">
<path d="M138.897 28.8867L178.489 66.9837L114.154 133.849L74.5625 95.752L138.897 28.8867Z" fill="white"/>
</mask>
<g mask="url(#mask25_389_447)">
<mask id="mask26_389_447" style="mask-type:luminance" maskUnits="userSpaceOnUse" x="74" y="28" width="105" height="106">
<path d="M138.897 28.8848L178.489 66.9818L114.154 133.847L74.5625 95.7501L138.897 28.8848Z" fill="white"/>
</mask>
<g mask="url(#mask26_389_447)">
<mask id="mask27_389_447" style="mask-type:luminance" maskUnits="userSpaceOnUse" x="74" y="28" width="105" height="106">
<path d="M138.897 28.8828L178.489 66.9798L114.154 133.845L74.5625 95.7481L138.897 28.8828Z" fill="white"/>
</mask>
<g mask="url(#mask27_389_447)">
<path d="M158.952 56.3409C159.003 56.3409 159.053 56.3346 159.104 56.3282L159.009 54.3696C158.958 54.3633 158.907 54.3633 158.856 54.3633C158.278 54.3887 157.839 54.8466 157.864 55.3934C157.89 55.9403 158.373 56.3664 158.952 56.3409Z" fill="#231F20"/>
</g>
</g>
</g>
</g>
<mask id="mask28_389_447" style="mask-type:luminance" maskUnits="userSpaceOnUse" x="159" y="53" width="8" height="3">
<path d="M159.535 53.7188H166.047V55.3467H159.535V53.7188Z" fill="white"/>
</mask>
<g mask="url(#mask28_389_447)">
<mask id="mask29_389_447" style="mask-type:luminance" maskUnits="userSpaceOnUse" x="74" y="28" width="105" height="106">
<path d="M138.897 28.8867L178.489 66.9837L114.154 133.849L74.5625 95.752L138.897 28.8867Z" fill="white"/>
</mask>
<g mask="url(#mask29_389_447)">
<mask id="mask30_389_447" style="mask-type:luminance" maskUnits="userSpaceOnUse" x="74" y="28" width="105" height="106">
<path d="M138.897 28.8848L178.489 66.9818L114.154 133.847L74.5625 95.7501L138.897 28.8848Z" fill="white"/>
</mask>
<g mask="url(#mask30_389_447)">
<mask id="mask31_389_447" style="mask-type:luminance" maskUnits="userSpaceOnUse" x="74" y="28" width="105" height="106">
<path d="M138.897 28.8828L178.489 66.9798L114.154 133.845L74.5625 95.7481L138.897 28.8828Z" fill="white"/>
</mask>
<g mask="url(#mask31_389_447)">
<path d="M160.81 54.9827L160.454 55.2243L164.53 55.1035L164.111 54.6838L164.397 54.2832L160.34 54.7919L160.81 54.9827Z" fill="#231F20"/>
</g>
</g>
</g>
</g>
<mask id="mask32_389_447" style="mask-type:luminance" maskUnits="userSpaceOnUse" x="157" y="53" width="5" height="4">
<path d="M157.91 53.7188H161.166V56.9746H157.91V53.7188Z" fill="white"/>
</mask>
<g mask="url(#mask32_389_447)">
<mask id="mask33_389_447" style="mask-type:luminance" maskUnits="userSpaceOnUse" x="74" y="28" width="105" height="106">
<path d="M138.893 28.8867L178.485 66.9837L114.15 133.849L74.5586 95.752L138.893 28.8867Z" fill="white"/>
</mask>
<g mask="url(#mask33_389_447)">
<mask id="mask34_389_447" style="mask-type:luminance" maskUnits="userSpaceOnUse" x="74" y="28" width="105" height="106">
<path d="M138.893 28.8848L178.485 66.9818L114.15 133.847L74.5586 95.7501L138.893 28.8848Z" fill="white"/>
</mask>
<g mask="url(#mask34_389_447)">
<mask id="mask35_389_447" style="mask-type:luminance" maskUnits="userSpaceOnUse" x="74" y="28" width="105" height="106">
<path d="M138.893 28.8828L178.485 66.9798L114.15 133.845L74.5586 95.7481L138.893 28.8828Z" fill="white"/>
</mask>
<g mask="url(#mask35_389_447)">
<path d="M159.586 54.8791L159.986 54.7265L159.993 54.8537L159.592 54.9045L159.586 54.8791ZM159.573 54.5611L160.101 54.3576L159.986 54.5993L159.579 54.7519L159.573 54.5611ZM159.999 54.9745L160.012 55.2543L159.605 55.267L159.592 55.0253L159.999 54.9745ZM160.018 55.3751L160.031 55.6549L159.624 55.6295L159.611 55.3878L160.018 55.3751ZM160.043 55.9029L159.63 55.7821V55.7503L160.037 55.7757L160.043 55.9029ZM160.063 56.0301L160.202 56.2654L159.649 56.1L159.636 55.9093L160.063 56.0301ZM159.338 56.329L159.656 56.2272L160.196 56.3862C160.202 56.3735 160.215 56.3671 160.234 56.3607C160.221 56.348 160.215 56.3353 160.215 56.3226C160.215 56.3162 160.215 56.3162 160.215 56.3162C160.209 56.2844 160.228 56.2526 160.26 56.2399L160.311 56.2145L160.228 56.0809L160.469 56.1509L160.514 56.1318L160.4 56.0046L160.164 55.9347L160.158 55.7821L160.317 55.7884C160.317 55.7694 160.336 55.7566 160.355 55.7439L160.482 55.6803L160.152 55.6613L160.139 55.3687L160.38 55.3624C160.387 55.3306 160.412 55.3051 160.444 55.3051V55.2988C160.412 55.2924 160.387 55.2734 160.374 55.2416L160.132 55.2479L160.12 54.9618L160.444 54.9172L160.311 54.86C160.291 54.8537 160.272 54.8346 160.266 54.8155L160.113 54.8409L160.101 54.682L160.33 54.5993L160.438 54.4658L160.387 54.4467L160.152 54.5357L160.221 54.3894L160.171 54.3767C160.139 54.364 160.12 54.3386 160.113 54.3068C160.113 54.3004 160.113 54.3004 160.113 54.3004C160.113 54.2813 160.12 54.2686 160.132 54.2559C160.113 54.2495 160.101 54.2432 160.094 54.2305L159.566 54.434L159.242 54.3513L159.287 55.3433L159.338 56.329Z" fill="#231F20"/>
</g>
</g>
</g>
</g>
<mask id="mask36_389_447" style="mask-type:luminance" maskUnits="userSpaceOnUse" x="76" y="45" width="97" height="73">
<path d="M76.5117 45.5801H172.559V117.208H76.5117V45.5801Z" fill="white"/>
</mask>
<g mask="url(#mask36_389_447)">
<mask id="mask37_389_447" style="mask-type:luminance" maskUnits="userSpaceOnUse" x="74" y="28" width="105" height="106">
<path d="M138.901 28.8828L178.493 66.9798L114.158 133.845L74.5664 95.7481L138.901 28.8828Z" fill="white"/>
</mask>
<g mask="url(#mask37_389_447)">
<mask id="mask38_389_447" style="mask-type:luminance" maskUnits="userSpaceOnUse" x="74" y="28" width="105" height="106">
<path d="M138.901 28.8848L178.493 66.9818L114.158 133.847L74.5664 95.7501L138.901 28.8848Z" fill="white"/>
</mask>
<g mask="url(#mask38_389_447)">
<mask id="mask39_389_447" style="mask-type:luminance" maskUnits="userSpaceOnUse" x="74" y="28" width="105" height="106">
<path d="M138.901 28.8848L178.493 66.9818L114.158 133.847L74.5664 95.7501L138.901 28.8848Z" fill="white"/>
</mask>
<g mask="url(#mask39_389_447)">
<path d="M109.897 108.39C109.897 108.39 109.395 107.812 109.42 107.748C109.452 107.685 110.298 106.68 110.298 106.68L110.152 106.298L110.915 105.503L111.061 105.643C111.487 106.05 111.5 106.724 111.099 107.144L109.897 108.39ZM132.11 53.7981C132.103 53.7726 132.084 53.7536 132.059 53.7536H132.027C132.008 53.5437 132.001 53.3402 132.008 53.1304L132.135 53.0986L132.351 53.868L132.122 53.9316C132.116 53.8807 132.11 53.8299 132.11 53.7981ZM132.071 52.5517C132.097 52.4245 132.129 52.291 132.16 52.1638L132.733 52.0048L132.949 52.7806L132.199 52.9841L132.071 52.5517ZM132.014 53.035C132.021 52.946 132.027 52.8569 132.04 52.7743L132.11 53.0095L132.014 53.035ZM132.517 51.2354L132.707 51.9158L132.192 52.0557C132.275 51.7823 132.383 51.5025 132.517 51.2354ZM133.35 50.9111L133.566 51.6805L132.796 51.8904L132.58 51.1209L133.35 50.9111ZM133.152 50.2243L133.324 50.822L132.631 51.0065C132.784 50.7394 132.955 50.4787 133.152 50.2243ZM133.35 49.9826L133.96 49.811L134.183 50.5868L133.413 50.7966L133.222 50.1353C133.267 50.0844 133.311 50.0335 133.35 49.9826ZM133.858 49.4485L133.935 49.7219L133.464 49.8555C133.591 49.7156 133.718 49.582 133.858 49.4485ZM134.609 48.8317L134.799 49.493L134.024 49.7028L133.935 49.3785C134.144 49.1878 134.373 49.0034 134.609 48.8317ZM134.901 48.6282L135.435 48.4819L135.658 49.2577L134.888 49.4676L134.691 48.7744C134.761 48.7236 134.831 48.679 134.901 48.6282ZM135.397 48.3293L135.41 48.3929L135.175 48.4565C135.245 48.4183 135.321 48.3738 135.397 48.3293ZM136.205 47.935L136.268 48.1576L135.499 48.3675L135.48 48.2848C135.709 48.1576 135.957 48.0431 136.205 47.935ZM137.044 47.6234L137.133 47.9287L136.357 48.1385L136.294 47.8969C136.535 47.7951 136.79 47.7061 137.044 47.6234ZM137.362 47.5344C137.547 47.4835 137.725 47.439 137.909 47.4009L137.992 47.6934L137.222 47.9032L137.133 47.598C137.21 47.5726 137.286 47.5535 137.362 47.5344ZM138.793 47.2673L138.85 47.4581L138.081 47.668L137.998 47.3818C138.265 47.3309 138.532 47.2928 138.793 47.2673ZM139.709 47.2228L138.939 47.4327L138.888 47.2546C139.168 47.2292 139.442 47.2165 139.709 47.2228ZM139.957 48.0877L139.181 48.2975L138.965 47.5217L139.734 47.3118L139.957 48.0877ZM140.046 47.2292C140.262 47.2419 140.478 47.2546 140.688 47.2864L140.847 47.8397L140.046 48.0622L139.823 47.2864L140.046 47.2292ZM141.667 47.4772L141.705 47.6107L140.936 47.8206L140.79 47.2991C141.089 47.3436 141.387 47.4009 141.667 47.4772ZM141.922 47.5471L141.794 47.5853L141.775 47.5026C141.826 47.5217 141.871 47.5344 141.922 47.5471ZM142.087 47.6044C142.297 47.6743 142.5 47.7506 142.697 47.8397L142.812 48.2339L142.042 48.4438L141.82 47.6743L142.087 47.6044ZM143.244 48.1194L142.901 48.2085L142.812 47.8905C142.958 47.9605 143.104 48.0368 143.244 48.1194ZM143.81 48.4946L143.912 48.8635L143.143 49.0733L142.926 48.3039L143.352 48.183C143.511 48.2784 143.664 48.3865 143.81 48.4946ZM144.173 48.7935L144.007 48.838L143.931 48.59C144.014 48.6536 144.096 48.7236 144.173 48.7935ZM144.255 48.8698C144.472 49.0733 144.669 49.3022 144.84 49.5439L144.249 49.7028L144.026 48.927L144.255 48.8698ZM145.216 50.1734L145.266 50.3515L144.491 50.5613L144.274 49.7919L144.898 49.6202C145.012 49.7982 145.12 49.9826 145.216 50.1734ZM145.514 51.2481L144.745 51.4579L144.516 50.6503L145.292 50.4405L145.514 51.2481ZM145.591 51.5152C145.616 51.7314 145.623 51.9412 145.61 52.1511L144.993 52.3228L144.77 51.547L145.546 51.3371L145.591 51.5152ZM145.457 53.124L145.235 53.1812L145.018 52.4118L145.61 52.2465C145.584 52.5453 145.54 52.8315 145.457 53.124ZM145.33 53.5246L145.26 53.2703L145.432 53.2258C145.4 53.3275 145.368 53.4229 145.33 53.5246ZM145.05 54.1605L144.624 54.2814L144.402 53.5056L145.171 53.2957L145.279 53.6645C145.209 53.8362 145.133 54.0016 145.05 54.1605ZM144.739 54.6883L144.65 54.3704L144.987 54.275C144.91 54.4149 144.828 54.5548 144.739 54.6883ZM144.268 55.3052L144.007 55.3751L143.785 54.6057L144.554 54.3958L144.669 54.7901C144.548 54.9618 144.414 55.1335 144.268 55.3052ZM144.052 55.5404L144.033 55.4641L144.16 55.4323C144.122 55.4705 144.09 55.5087 144.052 55.5404ZM143.321 56.2145L143.174 55.6994L143.944 55.4896L143.982 55.6231C143.778 55.8266 143.556 56.0301 143.321 56.2145ZM142.716 56.6533L142.5 56.7169L142.278 55.9411L143.085 55.7249L143.244 56.2781C143.073 56.4116 142.901 56.5388 142.716 56.6533ZM141.712 57.2192L141.667 57.0412L142.437 56.8313C142.208 56.9712 141.966 57.0984 141.712 57.2192ZM140.885 57.5563L140.802 57.2701L141.578 57.0603L141.629 57.2574C141.387 57.3655 141.139 57.4672 140.885 57.5563ZM140.262 57.7534C140.186 57.7725 140.109 57.7915 140.033 57.8106L139.944 57.5054L140.713 57.2955L140.796 57.5881C140.624 57.6453 140.446 57.7025 140.262 57.7534ZM139.155 57.9823L139.085 57.7407L139.855 57.5308L139.944 57.8297C139.677 57.8933 139.416 57.9442 139.155 57.9823ZM138.252 58.0586L138.227 57.976L138.996 57.7661L139.06 57.995C138.787 58.0268 138.519 58.0523 138.252 58.0586ZM137.903 58.065L138.138 58.0014L138.157 58.0586C138.068 58.065 137.985 58.065 137.903 58.065ZM137.318 58.0395L137.12 57.3464L137.89 57.1366L138.112 57.9124L137.578 58.0523C137.489 58.0523 137.407 58.0459 137.318 58.0395ZM136.351 57.8996L136.262 57.5817L137.031 57.3718L137.222 58.0332C136.923 58.0014 136.637 57.9569 136.351 57.8996ZM135.702 57.7343L136.173 57.6071L136.249 57.8806C136.065 57.8361 135.88 57.7915 135.702 57.7343ZM135.346 57.6135L135.156 56.9522L135.931 56.7423L136.148 57.5181L135.537 57.6834C135.473 57.658 135.41 57.6389 135.346 57.6135ZM134.38 57.1684L135.066 56.9776L135.238 57.5753C134.939 57.4545 134.653 57.321 134.38 57.1684ZM134.055 56.3226L134.825 56.1128L135.041 56.8886L134.272 57.0984L134.055 56.3226ZM133.451 56.4879L133.966 56.348L134.157 57.0285C133.903 56.8695 133.668 56.6851 133.451 56.4879ZM133.089 56.1255L132.968 55.6931L133.718 55.4896L133.941 56.259L133.369 56.418C133.273 56.3226 133.178 56.2272 133.089 56.1255ZM132.784 55.7439L132.879 55.7185L132.943 55.9538C132.885 55.8838 132.834 55.8139 132.784 55.7439ZM132.726 55.6613C132.612 55.4896 132.504 55.3052 132.415 55.1144L132.434 55.0953C132.459 55.0826 132.466 55.0508 132.453 55.0317C132.434 54.9936 132.415 54.9554 132.396 54.9173L132.631 54.8537L132.854 55.6295L132.726 55.6613ZM132.981 52.8696L133.197 53.6391L132.44 53.8489L132.224 53.0731L132.981 52.8696ZM133.591 51.7695L133.814 52.5453L133.044 52.7552L132.822 51.9794L133.591 51.7695ZM134.208 50.6758L134.424 51.4452L133.655 51.6551L133.439 50.8856L134.208 50.6758ZM135.041 50.3515L134.272 50.5613L134.055 49.7919L134.825 49.582L135.041 50.3515ZM135.683 49.3467L135.9 50.1162L135.13 50.326L134.914 49.5566L135.683 49.3467ZM136.516 49.0224L135.747 49.2323L135.524 48.4565L136.294 48.2466L136.516 49.0224ZM137.375 48.7871L136.605 48.997L136.389 48.2276L137.159 48.0177L137.375 48.7871ZM138.233 48.5519L137.464 48.7617L137.248 47.9923L138.017 47.7824L138.233 48.5519ZM138.322 48.5264L138.106 47.757L138.876 47.5471L139.092 48.3166L138.322 48.5264ZM139.34 49.1814L138.57 49.3913L138.348 48.6218L139.117 48.412L139.34 49.1814ZM140.198 48.9461L139.429 49.156L139.206 48.3865L139.982 48.1767L140.198 48.9461ZM141.089 48.7045L140.287 48.9207L140.071 48.1512L140.872 47.9287L141.089 48.7045ZM141.184 48.679L140.961 47.9096L141.731 47.6998L141.953 48.4692L141.184 48.679ZM142.195 49.334L141.426 49.5439L141.209 48.7681L141.979 48.5582L142.195 49.334ZM142.284 49.3086L142.068 48.5328L142.837 48.3229L143.053 49.0987L142.284 49.3086ZM143.301 49.9572L142.532 50.1671L142.309 49.3976L143.079 49.1878L143.301 49.9572ZM143.391 49.9381L143.168 49.1623L143.937 48.9525L144.16 49.7283L143.391 49.9381ZM143.632 50.7966L143.416 50.0272L144.185 49.8173L144.402 50.5868L143.632 50.7966ZM143.887 51.6932L143.658 50.8856L144.427 50.6758L144.656 51.4834L143.887 51.6932ZM144.135 52.5581L143.912 51.7823L144.681 51.5724L144.904 52.3482L144.135 52.5581ZM144.376 53.4165L144.16 52.6471L144.929 52.4372L145.146 53.2067L144.376 53.4165ZM143.759 54.5103L143.543 53.7408L144.313 53.531L144.535 54.3068L143.759 54.5103ZM142.926 54.8346L143.696 54.6247L143.918 55.4005L143.149 55.6104L142.926 54.8346ZM142.252 55.852L142.036 55.0826L142.837 54.86L143.06 55.6358L142.252 55.852ZM141.419 56.1764L142.189 55.9665L142.411 56.7423L141.642 56.9522L141.419 56.1764ZM140.561 56.4116L141.33 56.2018L141.553 56.9712L140.777 57.1811L140.561 56.4116ZM139.702 56.6469L140.472 56.4371L140.688 57.2065L139.918 57.4164L139.702 56.6469ZM138.844 56.8758L139.613 56.666L139.829 57.4418L139.06 57.6516L138.844 56.8758ZM138.755 56.9013L138.971 57.6771L138.202 57.8869L137.979 57.1111L138.755 56.9013ZM137.737 56.2527L138.507 56.0428L138.729 56.8123L137.954 57.0221L137.737 56.2527ZM136.879 56.4879L137.648 56.2781L137.864 57.0475L137.095 57.2574L136.879 56.4879ZM136.79 56.507L137.006 57.2828L136.237 57.4927L136.02 56.7169L136.79 56.507ZM135.772 55.8584L136.542 55.6486L136.764 56.418L135.995 56.6278L135.772 55.8584ZM135.683 55.8838L135.906 56.6533L135.13 56.8631L134.914 56.0937L135.683 55.8838ZM134.672 55.2289L135.442 55.019L135.658 55.7948L134.888 56.0047L134.672 55.2289ZM134.583 55.2543L134.799 56.0237L134.03 56.2336L133.807 55.4641L134.583 55.2543ZM133.566 54.5993L134.335 54.3895L134.558 55.1653L133.782 55.3751L133.566 54.5993ZM133.477 54.6247L133.693 55.4005L132.943 55.604L132.72 54.8346L133.477 54.6247ZM133.222 53.7281L133.451 54.5357L132.695 54.7392L132.466 53.938L133.222 53.7281ZM133.839 52.6344L134.055 53.4038L133.286 53.6137L133.07 52.8442L133.839 52.6344ZM134.45 51.5343L134.672 52.3101L133.903 52.5199L133.68 51.7505L134.45 51.5343ZM135.283 51.2163L134.513 51.4261L134.297 50.6503L135.066 50.4405L135.283 51.2163ZM135.925 50.2052L136.148 50.981L135.378 51.1909L135.156 50.4151L135.925 50.2052ZM136.758 49.8809L135.989 50.0907L135.772 49.3213L136.542 49.1115L136.758 49.8809ZM137.623 49.652L136.847 49.8618L136.631 49.086L137.4 48.8762L137.623 49.652ZM137.712 49.6265L137.489 48.8507L138.259 48.6409L138.481 49.4167L137.712 49.6265ZM138.723 50.2752L137.954 50.485L137.737 49.7156L138.507 49.5057L138.723 50.2752ZM139.581 50.0462L138.812 50.2561L138.596 49.4803L139.365 49.2704L139.581 50.0462ZM140.44 49.811L139.67 50.0208L139.454 49.245L140.224 49.0351L140.44 49.811ZM140.535 49.7855L140.313 49.0097L141.114 48.7935L141.337 49.5693L140.535 49.7855ZM141.578 50.4278L140.777 50.6503L140.554 49.8745L141.362 49.6583L141.578 50.4278ZM141.667 50.4023L141.451 49.6329L142.22 49.4231L142.443 50.1925L141.667 50.4023ZM142.685 51.0573L141.915 51.2672L141.693 50.4914L142.468 50.2815L142.685 51.0573ZM142.774 51.0319L142.557 50.2561L143.327 50.0462L143.543 50.822L142.774 51.0319ZM143.028 51.9285L142.799 51.1209L143.569 50.9111L143.797 51.7187L143.028 51.9285ZM143.276 52.787L143.053 52.0175L143.823 51.8077L144.045 52.5771L143.276 52.787ZM143.518 53.6518L143.295 52.876L144.071 52.6662L144.287 53.442L143.518 53.6518ZM142.685 53.9761L143.454 53.7663L143.67 54.5357L142.901 54.7456L142.685 53.9761ZM142.011 54.9936L141.788 54.2178L142.596 54.0016L142.812 54.771L142.011 54.9936ZM141.178 55.3115L141.947 55.1017L142.163 55.8775L141.394 56.0873L141.178 55.3115ZM140.313 55.5468L141.089 55.337L141.305 56.1128L140.535 56.3226L140.313 55.5468ZM139.454 55.7821L140.224 55.5722L140.446 56.348L139.677 56.5579L139.454 55.7821ZM139.365 55.8075L139.588 56.577L138.818 56.7868L138.596 56.0174L139.365 55.8075ZM138.354 55.1525L139.124 54.9427L139.34 55.7185L138.57 55.9283L138.354 55.1525ZM137.496 55.3878L138.265 55.178L138.481 55.9538L137.712 56.1636L137.496 55.3878ZM137.4 55.4133L137.623 56.1827L136.853 56.3926L136.631 55.6231L137.4 55.4133ZM136.389 54.7583L137.159 54.5484L137.381 55.3242L136.605 55.5341L136.389 54.7583ZM136.3 54.7837L136.516 55.5595L135.747 55.7694L135.531 54.9936L136.3 54.7837ZM135.283 54.1351L136.052 53.9253L136.275 54.6947L135.505 54.9045L135.283 54.1351ZM135.194 54.1542L135.416 54.93L134.647 55.1398L134.424 54.364L135.194 54.1542ZM134.17 53.4738L134.939 53.2639L135.168 54.0651L134.399 54.275L134.17 53.4738ZM134.081 53.4928L134.31 54.3004L133.54 54.5103L133.311 53.7027L134.081 53.4928ZM134.698 52.3991L134.914 53.1749L134.144 53.3847L133.928 52.6089L134.698 52.3991ZM135.531 52.0748L134.761 52.2846L134.539 51.5152L135.315 51.3053L135.531 52.0748ZM136.173 51.07L136.389 51.8395L135.62 52.0493L135.404 51.2799L136.173 51.07ZM137.006 50.7457L136.237 50.9556L136.014 50.1861L136.783 49.9763L137.006 50.7457ZM137.095 50.7203L136.872 49.9509L137.648 49.741L137.864 50.5104L137.095 50.7203ZM138.112 51.3753L137.337 51.5851L137.12 50.8093L137.89 50.5995L138.112 51.3753ZM138.971 51.14L138.195 51.3498L137.979 50.574L138.748 50.3642L138.971 51.14ZM139.829 50.9047L139.06 51.1146L138.837 50.3451L139.607 50.1353L139.829 50.9047ZM139.918 50.8793L139.696 50.1098L140.465 49.9L140.688 50.6694L139.918 50.8793ZM140.93 51.5343L140.16 51.7441L139.944 50.9683L140.713 50.7584L140.93 51.5343ZM141.019 51.5088L140.802 50.7394L141.604 50.5168L141.826 51.2926L141.019 51.5088ZM142.081 52.1829L141.273 52.4054L141.044 51.5978L141.852 51.3816L142.081 52.1829ZM142.17 52.1638L141.941 51.3562L142.71 51.1464L142.939 51.9539L142.17 52.1638ZM142.411 53.0223L142.195 52.2528L142.964 52.043L143.181 52.8124L142.411 53.0223ZM142.437 53.1113L143.206 52.9014L143.429 53.6772L142.659 53.8871L142.437 53.1113ZM141.763 54.1287L141.546 53.3593L142.348 53.1367L142.57 53.9125L141.763 54.1287ZM140.93 54.4531L141.699 54.2432L141.922 55.0126L141.152 55.2225L140.93 54.4531ZM140.071 54.6883L140.841 54.4785L141.063 55.2479L140.287 55.4578L140.071 54.6883ZM139.982 54.7138L140.198 55.4832L139.429 55.6931L139.213 54.9173L139.982 54.7138ZM138.965 54.0588L139.74 53.8489L139.957 54.6184L139.187 54.8282L138.965 54.0588ZM138.106 54.2941L138.876 54.0842L139.098 54.8537L138.329 55.0635L138.106 54.2941ZM138.017 54.3195L138.24 55.089L137.47 55.2988L137.248 54.5294L138.017 54.3195ZM137.006 53.6645L137.775 53.4547L137.992 54.2305L137.222 54.4403L137.006 53.6645ZM136.917 53.69L137.133 54.4594L136.364 54.6693L136.141 53.8998L136.917 53.69ZM135.887 53.0032L136.663 52.7933L136.892 53.6009L136.116 53.8108L135.887 53.0032ZM135.798 53.0286L136.027 53.8362L135.257 54.0461L135.028 53.2385L135.798 53.0286ZM135.772 52.9396L135.003 53.1494L134.787 52.3736L135.556 52.1638L135.772 52.9396ZM136.415 51.9285L136.637 52.7043L135.861 52.9142L135.645 52.1447L136.415 51.9285ZM136.478 51.8204L136.262 51.0446L137.031 50.8348L137.248 51.6106L136.478 51.8204ZM137.496 52.469L136.726 52.6789L136.504 51.9094L137.273 51.6996L137.496 52.469ZM138.354 52.2337L137.585 52.4436L137.362 51.6742L138.138 51.4643L138.354 52.2337ZM139.213 52.0048L138.443 52.2147L138.227 51.4389L138.996 51.229L139.213 52.0048ZM139.302 51.9794L139.085 51.2036L139.855 50.9937L140.071 51.7695L139.302 51.9794ZM140.325 52.6662L139.556 52.8696L139.327 52.0684L140.097 51.8586L140.325 52.6662ZM140.414 52.6407L140.186 51.8331L140.955 51.6233L141.184 52.4309L140.414 52.6407ZM141.432 53.2893L140.662 53.4992L140.44 52.7298L141.209 52.5199L141.432 53.2893ZM141.521 53.2639L141.298 52.4945L142.106 52.2783L142.322 53.0477L141.521 53.2639ZM140.688 53.5882L141.457 53.3784L141.674 54.1542L140.904 54.364L140.688 53.5882ZM140.599 53.6137L140.815 54.3895L140.046 54.5993L139.829 53.8235L140.599 53.6137ZM139.581 52.965L140.351 52.7552L140.573 53.5246L139.804 53.7345L139.581 52.965ZM138.723 53.194L139.492 52.9841L139.709 53.7599L138.939 53.9698L138.723 53.194ZM138.634 53.2194L138.85 53.9952L138.081 54.205L137.864 53.4292L138.634 53.2194ZM138.469 52.3037L139.238 52.0938L139.467 52.8951L138.698 53.1049L138.469 52.3037ZM137.75 53.3657L136.981 53.5755L136.752 52.7679L137.521 52.5581L137.75 53.3657ZM137.61 52.5326L138.38 52.3228L138.608 53.1304L137.839 53.3402L137.61 52.5326ZM132.351 54.8346C132.224 54.5421 132.16 54.2368 132.129 54.027L132.377 53.957L132.606 54.7646L132.351 54.8346ZM170.817 74.7765C170.843 74.5921 170.703 74.4204 170.512 74.3886L169.208 74.1851C169.049 74.1597 168.897 74.0834 168.801 73.9499C168.617 73.6891 168.801 73.4539 169.043 73.2822C169.323 73.085 169.666 72.9896 170.01 72.9833L171.409 72.9579C171.51 72.9579 171.599 72.8815 171.618 72.7798C171.644 72.659 171.561 72.5382 171.44 72.5127C171.11 72.4555 170.792 72.4428 170.792 72.4428L169.774 72.3283C169.596 72.3092 169.494 72.1248 169.564 71.9658C169.622 71.845 169.736 71.7369 169.959 71.7051C170.486 71.6288 171.014 70.8149 171.014 70.8149C171.491 71.0947 171.72 70.7958 171.72 70.7958L171.18 70.4588C171.307 69.8483 170.9 70.1917 170.9 70.1917C170.658 70.3952 170.041 70.4524 170.041 70.4524C169.132 70.8021 167.44 72.5254 167.44 72.5254C166.658 72.7099 165.647 73.3775 165.647 73.3775L158.716 75.0563C155.466 74.4077 153.336 76.0738 153.336 76.0738C147.975 77.8607 142.532 74.9737 142.532 74.9737C142.532 74.9737 142.805 75.0055 142.685 74.2487C142.602 73.7082 142.958 73.3712 143.174 73.2249C143.244 73.1741 143.257 73.0723 143.193 73.0087L143.066 72.8752C143.022 72.8307 143.047 72.748 143.111 72.7416L143.314 72.7035C143.384 72.6908 143.435 72.6208 143.429 72.5509C143.346 71.9595 143.855 71.6352 144.281 71.597C144.465 71.5843 144.599 71.419 144.573 71.2409C144.535 70.9611 144.414 70.5414 144.045 70.0581C143.543 69.3841 143.766 67.8579 143.887 67.2156C143.912 67.0757 144.071 67.0122 144.192 67.0885L144.383 67.222C144.497 67.3047 144.65 67.1966 144.605 67.063C144.306 66.1219 143.454 63.7945 142.074 63.0378C140.332 62.0775 137.21 62.4273 137.21 62.4273C137.21 62.4273 133.966 63.1459 133.776 66.3127C133.578 69.4731 134.494 71.6733 134.494 71.6733L134.602 72.5254C134.106 72.7416 134.284 73.2758 134.284 73.2758L133.75 73.9562C133.75 73.9562 128.421 71.3045 127.308 71.7115C126.838 71.8768 126.126 71.9976 125.452 72.0739C124.377 72.2011 123.283 72.1121 122.24 71.8259L118.19 70.7258C118.19 70.7258 117.948 68.4557 117.274 67.2029C116.593 65.9566 116.428 61.7405 116.428 61.7405C116.422 61.041 116.88 60.8312 117.128 60.7739C117.236 60.7421 117.337 60.6849 117.42 60.5959L118.38 59.5403C118.507 59.394 118.501 59.1778 118.374 59.0379C118.476 59.0188 118.584 58.9934 118.686 58.9743C118.813 58.9489 118.934 58.898 119.042 58.8217L120.301 57.8869L130.704 55.0572C130.819 55.0254 130.939 55.0254 131.054 55.0381C131.086 55.0444 131.118 55.0381 131.143 55.0317L131.792 54.8537C131.849 55.0063 131.919 55.1525 132.001 55.2988C132.014 55.3242 132.046 55.3306 132.071 55.3179C132.618 56.4371 133.623 57.3401 134.965 57.8933C136.58 58.5546 138.5 58.6437 140.37 58.1349C142.24 57.6262 143.836 56.5833 144.872 55.1907C145.915 53.7917 146.258 52.202 145.839 50.7267C145.425 49.2514 144.294 48.0686 142.659 47.3945C141.044 46.7268 139.124 46.6378 137.254 47.1465C135.384 47.6552 133.782 48.7045 132.752 50.0907C131.893 51.2417 131.505 52.5199 131.626 53.7599C131.601 53.7599 131.575 53.779 131.582 53.8108C131.582 53.8935 131.601 54.0715 131.639 54.2941L130.984 54.4721C130.959 54.4785 130.927 54.4912 130.908 54.5103C130.812 54.5866 130.711 54.6438 130.596 54.6756L120.193 57.5054L118.622 57.3464C118.507 57.3337 118.393 57.3528 118.285 57.3846C118.444 57.1048 118.431 56.8949 118.355 56.7359C118.215 56.4498 117.827 56.3926 117.598 56.6024L117.337 56.8377C117.274 56.9013 117.172 56.8758 117.134 56.7995C116.784 56.081 116.485 56.3417 116.339 56.5515C116.301 56.6151 116.212 56.6024 116.18 56.5388C115.996 56.1891 115.792 56.3735 115.792 56.3735L115.423 56.9013C115.353 56.9967 115.226 57.0221 115.124 56.9649L115.048 56.9204C113.649 57.1747 113.268 57.9823 113.268 58.7963C113.109 58.8281 112.956 58.8599 112.803 58.8917C112.587 58.9362 112.454 59.1524 112.511 59.3686L112.746 60.1762C112.803 60.3924 113.032 60.5132 113.242 60.4369C113.363 60.3924 113.484 60.3542 113.605 60.3161C113.719 60.5959 113.821 60.7739 113.821 60.7739C112.46 67.7307 113.738 71.9531 113.738 71.9531L113.802 72.8688C113.859 73.6891 114.406 74.4014 115.182 74.6684L123.385 77.5491C123.97 77.7589 124.39 78.2867 124.46 78.9036L124.549 79.762C124.669 80.913 124.32 82.0576 123.576 82.9352C122.952 83.6728 122.317 84.3151 121.693 84.862C121.687 85.3389 121.744 85.8858 121.954 86.3881C121.954 86.3881 121.573 85.9621 121.464 85.0655C119.862 86.4454 118.387 87.2403 117.458 87.66C117.388 87.9779 117.153 89.2561 117.592 90.3117C117.592 90.3117 116.886 89.5232 117.121 87.8062C116.714 87.9779 116.479 88.0415 116.479 88.0415L114.737 88.4548C114.33 88.5502 114.005 88.8555 113.891 89.2624L113.77 89.663C113.63 90.1463 113.28 90.5533 112.81 90.7314C110.304 91.6725 106.419 97.0713 106.419 97.0713L102.4 100.83L102.152 99.208C102.101 98.8391 102.095 98.464 102.19 98.1079C102.381 97.3829 101.542 97.2303 101.542 97.2303L96.6069 98.2478C96.397 98.2923 96.1808 98.1778 96.0918 97.9743L90.8837 96.0602C90.693 95.9903 90.5912 95.7868 90.6421 95.596C90.9855 94.2225 90.4767 93.4149 89.8472 92.938C89.2049 92.4547 88.3783 92.2957 87.5961 92.4547L83.9905 93.1669C83.9905 93.1669 77.6187 92.6009 76.8366 95.6851C76.4169 97.3448 76.9129 98.0125 77.4597 98.2732C77.8922 98.4767 78.3818 98.4067 78.7824 98.1524C79.9398 97.4274 82.2036 97.4974 82.973 97.5419C83.1447 97.5546 83.3037 97.6246 83.4309 97.7454L85.0397 99.2906C85.0906 99.3415 85.1478 99.386 85.2114 99.4178L85.2242 99.4242C85.5167 99.5768 85.8601 99.5068 86.0953 99.2779C87.0937 98.2986 89.3575 99.7231 89.3575 99.7231C94.5211 104.772 99.2077 107.208 100.314 108.27C101.414 109.332 103.799 108.988 103.799 108.988C105.637 110.731 107.328 112.606 108.829 114.635C109.064 114.953 109.35 115.271 109.656 115.576C110.845 116.772 112.784 116.733 113.904 115.493L115.557 113.656L116.371 114.139L125.445 100.168C126.011 99.8121 126.711 100.264 127.149 100.651C127.366 100.836 127.696 100.76 127.792 100.499C128.898 97.491 130.666 96.3846 130.666 96.3846C131.919 95.7169 133.21 93.7837 133.718 92.9697C133.61 92.4419 133.394 91.7679 132.968 91.2337C132.968 91.2337 133.559 91.6026 133.909 92.6518C133.935 92.6136 133.947 92.5946 133.947 92.5946C135.582 91.6471 136.364 89.7648 136.364 89.7648C136.364 89.7648 136.326 88.2005 135.499 87.1703C135.499 87.1703 136.427 87.749 136.656 89.5359C138.698 87.908 140.453 85.5424 141.527 83.9208C142.303 82.7444 143.511 81.9177 144.904 81.6316L153.495 79.8383C154.633 79.9719 159.415 78.4075 159.415 78.4075L165.851 76.0929C166.646 76.1501 167.619 75.5333 168.121 75.1644C168.343 75.0055 168.617 74.9228 168.897 74.9419L170.461 75.0627C170.633 75.0754 170.792 74.9546 170.817 74.7765Z" fill="#231F20"/>
</g>
</g>
</g>
</g>
<mask id="mask40_389_447" style="mask-type:luminance" maskUnits="userSpaceOnUse" x="39" y="27" width="45" height="86">
<path d="M39.0703 27.6738H83.0242V112.325H39.0703V27.6738Z" fill="white"/>
</mask>
<g mask="url(#mask40_389_447)">
<mask id="mask41_389_447" style="mask-type:luminance" maskUnits="userSpaceOnUse" x="17" y="18" width="81" height="96">
<path d="M50.3781 18.2656L97.219 39.1423L63.9229 113.861L17.082 92.9843L50.3781 18.2656Z" fill="white"/>
</mask>
<g mask="url(#mask41_389_447)">
<mask id="mask42_389_447" style="mask-type:luminance" maskUnits="userSpaceOnUse" x="17" y="18" width="81" height="96">
<path d="M50.3742 18.2617L97.215 39.1384L63.919 113.857L17.0781 92.9804L50.3742 18.2617Z" fill="white"/>
</mask>
<g mask="url(#mask42_389_447)">
<mask id="mask43_389_447" style="mask-type:luminance" maskUnits="userSpaceOnUse" x="17" y="18" width="81" height="96">
<path d="M50.3703 18.2578L97.2111 39.1345L63.9151 113.853L17.0742 92.9765L50.3703 18.2578Z" fill="white"/>
</mask>
<g mask="url(#mask43_389_447)">
<path fill-rule="evenodd" clip-rule="evenodd" d="M66.5563 32.8327C66.3974 31.243 67.3894 29.9839 69.5642 29.0746C70.1556 28.4514 71.2239 28.4005 72.7819 28.9029C74.9694 29.2526 76.3684 30.9441 76.9534 33.9647C77.2586 35.1856 76.6482 37.0488 75.1156 39.586C75.2047 39.8468 75.4717 40.2092 75.9232 40.6607L76.5782 40.8642C77.7674 40.9532 78.9374 42.0534 80.0884 44.1518C81.799 46.3521 82.454 49.0928 82.0725 52.3741C82.2187 53.4424 82.2251 54.4344 82.1042 55.3437L82.0979 55.3883L82.0852 55.4328L82.0788 55.4709L82.0725 55.5154C82.0089 55.9224 81.9198 56.2976 81.799 56.6728C81.6337 57.2324 81.3984 57.8301 81.1059 58.466C80.8006 61.5184 81.3094 65.1494 82.6448 69.3718C81.6973 73.9503 79.7132 77.1171 76.6863 78.8722C75.1729 80.3666 72.6865 82.2298 69.2271 84.4491C69.2271 84.4491 69.1636 85.3521 69.0427 87.1517C69.3607 89.7652 69.1381 92.0036 68.356 93.8732C68.356 93.8732 67.631 95.7109 66.1684 99.4119C64.5151 102.216 63.752 104.232 63.911 105.453C64.566 106.381 64.337 108.016 63.2051 110.362C63.0461 111.628 62.4738 112.244 61.4818 112.219C59.9556 112.054 58.8492 111.182 58.1497 109.593C58.1433 108.626 57.6346 107.844 56.6298 107.272C55.7904 107.17 55.0019 106.432 54.2579 105.04C53.4948 101.275 54.6204 100.175 57.6346 101.765C58.2959 101.72 58.8746 101.765 59.3897 101.898C60.9985 99.5327 62.0287 95.8063 62.4865 90.7064C62.2513 88.9004 62.2576 86.8274 62.512 84.4809C62.4802 82.3887 62.6392 80.4302 63.008 78.6178C61.5263 79.4064 59.218 79.9469 56.0702 80.2012C54.8811 80.2648 54.4741 80.5637 54.8429 81.0979C56.2229 82.7003 56.2992 85.6001 55.0846 89.797C54.2897 92.7349 54.1117 95.1195 54.5631 96.9446C55.4471 96.9319 55.5615 97.7077 55.18 98.5534C54.4232 101.517 53.3867 102.731 52.064 102.223C50.2453 100.963 48.8909 100.289 48.0133 100.219C44.6939 98.9286 42.7607 97.8158 42.2393 96.9001C40.0263 94.9796 40.0454 93.9113 42.2965 93.7078C44.9037 94.5345 47.4346 94.6871 49.8638 94.1593C50.1245 92.2834 49.5458 87.4696 48.1341 79.7243C47.8861 78.0137 48.4521 76.3858 49.832 74.8596C49.832 74.8596 52.9734 72.6531 59.2689 68.2081C60.865 67.7375 61.9079 67.0253 62.3912 66.0969C62.3912 65.887 62.4675 65.6899 62.6201 65.5055C62.8426 65.2384 63.2305 64.9968 63.7774 64.7678C64.2798 64.488 64.3179 64.0874 63.9173 63.5787C63.5994 63.0763 63.8601 62.6757 64.6804 62.3832C64.9793 61.9699 65.0683 61.5375 64.9475 61.086C65.3481 60.0622 65.4689 59.2673 65.3354 58.7204C65.9459 56.4184 66.0031 54.7396 65.4944 53.6968L64.7376 52.921C64.5914 53.0036 64.3879 53.0545 64.1399 53.0481C63.8219 53.6777 63.4022 53.7158 62.8999 53.1944C62.6328 53.5378 62.2894 53.4297 61.8506 52.8892C61.3546 53.6204 61.0685 53.4297 61.0112 52.3232C60.9985 52.1261 60.9159 51.9798 60.7632 51.8781C60.3181 52.5076 59.7903 52.9273 59.1798 53.1372C59.148 53.1435 59.1226 53.1562 59.0972 53.1562C58.0225 53.4869 56.6871 53.1753 55.0973 52.2342C52.9225 50.6126 52.0895 48.7113 52.6109 46.5428C53.5266 45.004 55.3008 44.4698 57.9525 44.9531C60.4198 45.3155 62.1622 46.5492 63.1797 48.6477C63.3895 48.7113 63.6185 48.7876 63.8601 48.8957C63.5421 47.0261 63.593 45.6844 63.9809 44.8577C63.9555 44.6796 63.9364 44.5016 63.911 44.3299C63.434 44.7178 62.8872 44.6796 62.2703 44.2154C61.3038 44.7305 60.4707 44.6924 59.7458 44.0692C58.0288 43.6495 55.5106 43.3697 52.2167 43.2234C51.5299 42.7719 50.9766 42.7846 50.5442 43.2616C49.3551 43.5795 48.0896 43.3061 46.7606 42.4349C46.4108 42.1106 45.8131 41.7863 44.9355 41.4302C44.5794 41.2203 44.0834 41.2012 43.4411 41.3475C42.7989 41.2458 42.7162 41.0486 43.1931 40.7688C43.7527 40.5908 44.2487 40.5908 44.6875 40.7688C44.9355 40.7498 44.9928 40.6607 44.8465 40.489C44.236 40.1266 43.5874 40.0375 42.8943 40.2092C42.4173 40.1329 42.3855 39.904 42.7989 39.5352C43.333 39.2681 43.8926 39.2299 44.4967 39.4271C44.6557 39.3126 44.7257 39.1409 44.6939 38.8929C43.8036 38.416 42.9006 38.2316 41.9913 38.3588C41.5334 38.1998 41.5589 38.0472 42.0612 37.8691C43.1931 37.4431 44.2869 37.5194 45.3361 38.079C46.5507 38.6767 47.1676 38.9692 47.1676 38.9692C47.3583 38.4605 47.7208 38.3715 48.2422 38.6703C49.4314 38.7848 50.2072 39.319 50.5887 40.2665C51.142 40.9405 52.0004 41.055 53.1514 40.5781C56.8206 39.4207 60.121 39.1854 63.0525 39.8976C63.3641 38.346 64.1653 37.5384 65.4308 37.4621C65.5135 36.9343 65.6406 36.3938 65.806 35.8342C65.4626 35.3255 65.7106 34.3208 66.5563 32.8327ZM45.4188 49.5443C44.1852 48.9974 42.7289 49.557 42.1757 50.7907C41.6225 52.0434 42.1757 53.4996 43.4157 54.0465C44.6621 54.6061 46.1183 54.0465 46.6715 52.8001C47.2248 51.5601 46.6652 50.1039 45.4188 49.5443Z" fill="black"/>
</g>
</g>
</g>
</g>
<mask id="mask44_389_447" style="mask-type:luminance" maskUnits="userSpaceOnUse" x="102" y="100" width="82" height="76">
<path d="M102.559 100.93H183.955V175.814H102.559V100.93Z" fill="white"/>
</mask>
<g mask="url(#mask44_389_447)">
<mask id="mask45_389_447" style="mask-type:luminance" maskUnits="userSpaceOnUse" x="95" y="97" width="94" height="82">
<path d="M168.53 97.5801L188.147 151.505L114.719 178.219L95.1016 124.294L168.53 97.5801Z" fill="white"/>
</mask>
<g mask="url(#mask45_389_447)">
<mask id="mask46_389_447" style="mask-type:luminance" maskUnits="userSpaceOnUse" x="95" y="97" width="94" height="82">
<path d="M168.53 97.5801L188.147 151.505L114.719 178.219L95.1016 124.294L168.53 97.5801Z" fill="white"/>
</mask>
<g mask="url(#mask46_389_447)">
<mask id="mask47_389_447" style="mask-type:luminance" maskUnits="userSpaceOnUse" x="95" y="97" width="94" height="82">
<path d="M168.53 97.582L188.147 151.507L114.719 178.221L95.1016 124.296L168.53 97.582Z" fill="white"/>
</mask>
<g mask="url(#mask47_389_447)">
<path d="M121.6 174.97C121.619 174.926 121.632 174.875 121.651 174.83C121.975 174.163 122.242 173.457 122.643 172.84C123.063 172.204 122.967 171.352 123.616 170.83C123.692 170.773 123.698 170.602 123.711 170.481C123.819 169.253 124.443 168.3 125.32 167.467C125.492 167.301 125.657 167.085 125.733 166.862C126.21 165.527 127.037 164.414 127.87 163.289C128.264 162.748 128.601 162.157 128.887 161.559C129.339 160.592 129.74 159.6 130.134 158.608C130.261 158.29 130.452 158.163 130.789 158.1C131.507 157.96 131.666 157.674 131.546 156.93C131.463 156.415 131.609 156.071 132.061 155.81C132.251 155.696 132.474 155.632 132.677 155.55C133.422 155.251 134.159 154.946 134.903 154.659C135.227 154.539 135.565 154.424 135.902 154.341C137.498 153.941 139.1 153.547 140.703 153.159C140.893 153.114 141.097 153.082 141.294 153.089C142.019 153.108 142.738 153.133 143.462 153.197C143.723 153.216 144.041 153.267 144.226 153.426C144.919 154.017 145.752 154.278 146.591 154.494C148.671 155.041 150.756 155.009 152.734 154.068C153.51 153.693 154.26 153.489 155.1 153.547C155.519 153.578 155.863 153.458 156.225 153.241C156.505 153.076 156.874 153.025 157.211 152.993C157.478 152.968 157.758 153.044 158.031 153.076C163.137 153.693 168.193 153.515 173.159 151.976C174.596 151.531 175.76 150.723 176.39 149.292C176.784 148.408 176.765 147.563 176.25 146.742C176.097 146.501 175.964 146.246 175.754 145.884C176.199 145.82 176.511 145.763 176.822 145.738C178.151 145.617 179.321 145.108 180.421 144.37C183.48 142.304 183.327 138.24 180.879 136.167C179.677 135.15 178.31 134.628 176.733 135.283C176.046 135.57 175.506 135.5 174.94 135.055C174.666 134.832 174.368 134.565 173.916 134.66C173.7 135.582 174.291 136.371 174.368 137.426C174.081 137.185 173.916 137.064 173.77 136.924C173.458 136.612 173.166 136.269 172.841 135.97C172.314 135.481 172.167 135.474 171.659 135.983C170.902 136.74 170.177 137.522 169.433 138.298C169.357 138.38 169.261 138.45 169.089 138.609C168.752 137.592 168.123 136.752 168.549 135.652C168.702 135.271 168.74 134.832 168.759 134.412C168.797 133.56 168.524 132.803 167.869 132.218C167.557 131.939 167.245 131.652 166.896 131.417C166.298 131.023 165.656 130.686 165.058 130.285C164.848 130.145 164.606 129.916 164.562 129.694C164.447 129.102 164.435 128.486 164.384 127.888C164.613 127.792 164.753 127.748 164.886 127.678C165.681 127.227 166.26 126.597 166.419 125.669C166.552 124.886 166.177 124.486 165.395 124.518C165.185 124.53 164.975 124.524 164.759 124.524C165.401 124.085 165.325 123.513 165.249 122.909C164.536 117.065 163.837 111.221 163.125 105.377C162.972 104.099 162.788 102.827 162.629 101.549C162.584 101.199 162.482 100.9 162.044 100.951C160.829 101.085 159.614 101.218 158.4 101.371C157.987 101.428 157.802 101.701 157.834 102.115C157.878 102.706 157.904 103.297 157.987 103.889C158.82 110.286 159.672 116.69 160.511 123.087C160.543 123.303 160.549 123.519 160.562 123.627C160.136 123.837 159.678 123.926 159.487 124.193C158.877 125.039 158.336 125.929 157.834 126.845C157.262 127.888 157.344 128.11 158.298 128.816C158.54 128.994 158.781 129.166 159.029 129.331C159.328 129.541 159.634 129.751 159.958 129.967C159.85 130.4 159.754 130.781 159.659 131.163C159.284 132.632 159.417 134.005 160.339 135.258C160.632 135.652 160.855 136.104 161.09 136.536C161.261 136.848 161.351 137.178 161.16 137.528C160.963 137.865 161.083 138.132 161.363 138.374C161.942 138.883 162.012 139.608 162.228 140.371C161.929 140.447 161.7 140.53 161.465 140.555C160.969 140.612 160.467 140.638 159.971 140.695C157.274 140.994 154.642 141.528 152.219 142.819C151.895 142.991 151.666 142.895 151.373 142.793C150.578 142.507 149.796 142.145 148.969 142.011C146.241 141.579 143.494 141.223 140.747 140.867C139.463 140.695 138.172 140.6 136.881 140.924C136.595 141 136.283 140.994 135.984 140.994C135.8 140.994 135.615 140.937 135.418 140.898C135.406 140.746 135.374 140.644 135.386 140.549C135.565 139.334 135.66 139.092 134 139.258C132.538 139.398 131.056 139.487 129.593 139.43C128.474 139.385 127.399 139.48 126.331 139.76C125.6 139.951 124.811 140.078 124.29 140.765C124.175 140.911 123.902 140.968 123.692 141.019C122.28 141.363 120.875 141.7 119.457 142.011C116.996 142.558 114.554 143.194 112.03 143.423C111.635 143.455 111.216 143.525 110.872 143.703C110.433 143.925 110.058 144.002 109.677 143.658C109.543 143.766 109.435 143.836 109.352 143.919C108.659 144.625 107.852 144.803 106.955 144.428C106.434 144.205 105.944 143.913 105.448 143.633C105.124 143.448 104.831 143.207 104.5 143.041C103.935 142.755 103.559 142.87 103.241 143.41C103.114 143.62 103.025 143.868 102.987 144.11C102.847 144.911 102.898 145.719 103.343 146.405C103.763 147.06 104.246 147.715 104.825 148.237C105.81 149.108 106.758 149.998 107.464 151.13C107.947 151.9 108.685 152.421 109.518 152.796C110.154 153.076 110.739 153 111.222 152.472C111.597 152.071 111.998 151.677 112.29 151.226C113.149 149.89 114.522 149.623 115.89 149.668C117.187 149.699 118.478 149.801 119.775 149.668C119.953 149.655 120.207 149.68 120.315 149.788C120.525 150.005 120.748 149.979 120.996 149.973C121.32 149.966 121.651 149.954 121.969 150.011C122.528 150.106 122.999 150.062 123.247 149.369C124.195 149.954 124.983 149.21 125.931 149.242C125.765 149.458 125.613 149.68 125.441 149.884C125.008 150.399 124.455 150.844 124.163 151.423C123.47 152.79 122.63 154.113 122.503 155.702C122.484 155.893 122.395 156.084 122.325 156.268C121.638 157.947 120.97 159.632 120.252 161.298C119.781 162.392 119.254 163.46 118.726 164.529C118.293 165.425 117.823 166.296 117.371 167.187C117.142 167.626 116.952 168.09 116.691 168.516C116.398 169.005 116.093 169.145 115.559 168.961C115.126 168.802 114.739 168.516 114.344 168.268C113.95 168.02 113.588 167.715 113.181 167.486C112.78 167.263 112.348 167.263 111.991 167.587C111.648 167.899 111.712 168.306 111.826 168.694C111.877 168.885 111.941 169.075 112.036 169.253C112.735 170.525 113.607 171.644 114.904 172.395C115.699 172.853 116.443 173.393 117.238 173.851C118.249 174.436 119.266 175.008 120.315 175.511C121.104 175.892 121.288 175.771 121.6 174.97ZM171.779 138.813C171.862 139.061 171.824 139.29 171.493 139.398C171.379 139.092 171.277 138.813 171.169 138.495C171.544 138.393 171.703 138.571 171.779 138.813ZM172.244 135.977C172.6 136.371 172.873 136.676 173.197 137.032C172.651 137.287 172.008 137.312 172.002 138.056C171.43 137.935 171.341 137.471 170.997 137.134C171.404 136.759 171.779 136.409 172.244 135.977ZM169.56 138.711C169.808 138.342 170.082 137.992 170.38 137.662C170.635 137.369 170.857 137.503 171.035 137.821C170.635 138.38 170.26 138.895 169.865 139.436C169.509 139.251 169.337 139.035 169.56 138.711ZM170.171 139.569C170.38 139.302 170.52 139.124 170.762 138.813C170.927 139.207 171.035 139.468 171.143 139.728C171.08 139.779 171.023 139.837 170.959 139.894C170.73 139.798 170.501 139.703 170.171 139.569Z" fill="black"/>
</g>
</g>
</g>
</g>
<mask id="mask48_389_447" style="mask-type:luminance" maskUnits="userSpaceOnUse" x="143" y="112" width="14" height="25">
<path d="M143.258 112.326H156.281V136.745H143.258V112.326Z" fill="white"/>
</mask>
<g mask="url(#mask48_389_447)">
<mask id="mask49_389_447" style="mask-type:luminance" maskUnits="userSpaceOnUse" x="95" y="97" width="94" height="82">
<path d="M168.534 97.584L188.151 151.509L114.723 178.223L95.1055 124.298L168.534 97.584Z" fill="white"/>
</mask>
<g mask="url(#mask49_389_447)">
<mask id="mask50_389_447" style="mask-type:luminance" maskUnits="userSpaceOnUse" x="95" y="97" width="94" height="82">
<path d="M168.534 97.582L188.151 151.507L114.723 178.221L95.1055 124.296L168.534 97.582Z" fill="white"/>
</mask>
<g mask="url(#mask50_389_447)">
<mask id="mask51_389_447" style="mask-type:luminance" maskUnits="userSpaceOnUse" x="95" y="97" width="94" height="82">
<path d="M168.534 97.582L188.151 151.507L114.723 178.221L95.1055 124.296L168.534 97.582Z" fill="white"/>
</mask>
<g mask="url(#mask51_389_447)">
<path d="M144.137 135.704C144.188 135.71 144.238 135.723 144.289 135.729C145.148 127.011 148.709 119.495 154.68 113.028C154.572 113.002 154.54 112.989 154.527 112.996C154.438 113.04 154.343 113.085 154.267 113.142C151.195 115.438 148.772 118.274 147.151 121.739C145.294 125.733 144.417 129.962 144.162 134.324C144.13 134.782 144.143 135.246 144.137 135.704Z" fill="black"/>
</g>
</g>
</g>
</g>
<mask id="mask52_389_447" style="mask-type:luminance" maskUnits="userSpaceOnUse" x="144" y="117" width="14" height="22">
<path d="M144.887 117.207H157.91V138.37H144.887V117.207Z" fill="white"/>
</mask>
<g mask="url(#mask52_389_447)">
<mask id="mask53_389_447" style="mask-type:luminance" maskUnits="userSpaceOnUse" x="95" y="97" width="94" height="82">
<path d="M168.537 97.584L188.155 151.509L114.727 178.223L95.1094 124.298L168.537 97.584Z" fill="white"/>
</mask>
<g mask="url(#mask53_389_447)">
<mask id="mask54_389_447" style="mask-type:luminance" maskUnits="userSpaceOnUse" x="95" y="97" width="94" height="82">
<path d="M168.537 97.582L188.155 151.507L114.727 178.221L95.1094 124.296L168.537 97.582Z" fill="white"/>
</mask>
<g mask="url(#mask54_389_447)">
<mask id="mask55_389_447" style="mask-type:luminance" maskUnits="userSpaceOnUse" x="95" y="97" width="94" height="82">
<path d="M168.537 97.582L188.155 151.507L114.727 178.221L95.1094 124.296L168.537 97.582Z" fill="white"/>
</mask>
<g mask="url(#mask55_389_447)">
<path d="M148.398 127.308C147.037 130.291 146.236 133.432 145.848 136.669C145.829 136.847 145.848 137.038 145.854 137.222C147.393 129.814 150.846 123.474 156.48 118.323C156.442 118.285 156.411 118.247 156.372 118.215C156.143 118.342 155.902 118.456 155.686 118.603C152.43 120.828 150.02 123.747 148.398 127.308Z" fill="black"/>
</g>
</g>
</g>
</g>
<mask id="mask56_389_447" style="mask-type:luminance" maskUnits="userSpaceOnUse" x="0" y="131" width="80" height="79">
<path d="M0 131.859H79.7681V209.999H0V131.859Z" fill="white"/>
</mask>
<g mask="url(#mask56_389_447)">
<mask id="mask57_389_447" style="mask-type:luminance" maskUnits="userSpaceOnUse" x="-19" y="122" width="106" height="106">
<path d="M21.8233 122.5L86.5776 187.248L46.0004 227.825L-18.7539 163.077L21.8233 122.5Z" fill="white"/>
</mask>
<g mask="url(#mask57_389_447)">
<mask id="mask58_389_447" style="mask-type:luminance" maskUnits="userSpaceOnUse" x="-19" y="122" width="106" height="106">
<path d="M21.8272 122.498L86.5815 187.246L46.0043 227.823L-18.75 163.075L21.8272 122.498Z" fill="white"/>
</mask>
<g mask="url(#mask58_389_447)">
<path fill-rule="evenodd" clip-rule="evenodd" d="M11.2603 133.059C12.9454 133.555 34.5408 137.046 40.6391 142.171C45.8726 146.565 48.8614 154.508 52.5306 163.029C54.4383 167.461 62.4825 190.061 78.6155 195.562C60.6702 213.5 31.5393 213.5 13.6004 195.562C-3.53092 178.437 -4.30673 151.112 11.2603 133.059Z" fill="#746F71"/>
</g>
</g>
</g>
<mask id="mask59_389_447" style="mask-type:luminance" maskUnits="userSpaceOnUse" x="0" y="143" width="64" height="67">
<path d="M0 143.252H63.4889V209.996H0V143.252Z" fill="white"/>
</mask>
<g mask="url(#mask59_389_447)">
<mask id="mask60_389_447" style="mask-type:luminance" maskUnits="userSpaceOnUse" x="-19" y="122" width="106" height="106">
<path d="M21.8233 122.5L86.5776 187.248L46.0004 227.825L-18.7539 163.077L21.8233 122.5Z" fill="white"/>
</mask>
<g mask="url(#mask60_389_447)">
<mask id="mask61_389_447" style="mask-type:luminance" maskUnits="userSpaceOnUse" x="-19" y="122" width="106" height="106">
<path d="M21.8272 122.502L86.5815 187.25L46.0043 227.827L-18.75 163.079L21.8272 122.502Z" fill="white"/>
</mask>
<g mask="url(#mask61_389_447)">
<path fill-rule="evenodd" clip-rule="evenodd" d="M62.8127 205.854C62.1831 204.455 56.4409 186.866 51.5571 181.352C47.3729 176.621 40.7022 173.168 33.4847 169.099C29.7392 166.981 10.8273 157.519 4.25841 144.057C-2.50763 159.287 -1.6428 180.316 13.2756 195.234C29.1351 211.094 49.4586 211.145 62.8127 205.854Z" fill="#C3DDC2" fill-opacity="0.46"/>
</g>
</g>
</g>
</svg>
